<?xml version="1.0" encoding="UTF-8"?>
<svg id="Layer_1" data-name="Layer 1" xmlns="http://www.w3.org/2000/svg" xmlns:xlink="http://www.w3.org/1999/xlink" viewBox="0 0 180 180">
  <defs>
    <style>
      .cls-1 {
        fill: url(#linear-gradient-2);
      }

      .cls-2 {
        fill: url(#linear-gradient-4);
      }

      .cls-3 {
        fill: url(#linear-gradient-3);
      }

      .cls-4 {
        filter: url(#drop-shadow-1);
      }

      .cls-5 {
        fill: #5b461b;
      }

      .cls-6 {
        fill: url(#linear-gradient);
      }
    </style>
    <filter id="drop-shadow-1" x="1.56" y="29.16" width="176.64" height="143.52" filterUnits="userSpaceOnUse">
      <feOffset dx="0" dy="0"/>
      <feGaussianBlur result="blur" stdDeviation="1"/>
      <feFlood flood-color="#231f20" flood-opacity=".62"/>
      <feComposite in2="blur" operator="in"/>
      <feComposite in="SourceGraphic"/>
    </filter>
    <linearGradient id="linear-gradient" x1=".63" y1="148.98" x2="90.59" y2="131.49" gradientUnits="userSpaceOnUse">
      <stop offset="0" stop-color="#c1922d"/>
      <stop offset="1" stop-color="#e1c464"/>
    </linearGradient>
    <linearGradient id="linear-gradient-2" x1="29.01" y1="77.46" x2="152.15" y2="77.46" xlink:href="#linear-gradient"/>
    <linearGradient id="linear-gradient-3" x1="94.87" y1="123.83" x2="115.88" y2="123.83" xlink:href="#linear-gradient"/>
    <linearGradient id="linear-gradient-4" x1="129.78" y1="139.6" x2="150.79" y2="139.6" xlink:href="#linear-gradient"/>
  </defs>
  <g class="cls-4">
    <polygon class="cls-6" points="66.81 105.68 66.81 159.83 21.54 159.83 21.54 145.21 4.62 156.23 4.62 169.5 83.72 169.5 83.72 96.16 66.81 105.68"/>
    <polygon class="cls-1" points="152.15 32.18 151.87 51.38 151.87 114.63 150.79 114.63 150.79 52.01 29.01 122.73 29.01 112.63 152.15 32.18"/>
    <polygon class="cls-5" points="131.31 118.68 140.24 115.07 140.24 90.96 115.98 78.16 115.98 169.5 140.24 169.5 140.24 168.72 131.04 168.72 131.31 118.68"/>
    <path class="cls-3" d="M94.87,91.13v78.38h21.01v-91.34l-21.01,12.97ZM114.53,168.72l-18.67-.18v-76.82l18.67-11.63v88.62Z"/>
    <polygon class="cls-5" points="150.89 109.7 150.89 169.5 175.15 169.5 175.15 118.08 150.89 109.7"/>
    <path class="cls-2" d="M129.78,118.19v51.32h21.01v-59.81l-21.01,8.49ZM149.17,168.72h-18.13l.27-50.04,17.86-7.22v57.26Z"/>
  </g>
</svg>
